<svg xmlns="http://www.w3.org/2000/svg" viewBox="0 0 64 64" width="64" height="64">
  <rect width="64" height="64" rx="12" fill="#1e293b"/>
  <!-- Letter B outline -->
  <path d="M16 10h18c4 0 7.5 1.5 9.5 4s3 5.5 3 9c0 3-1 5.5-2.5 7.5 2.5 2 4.5 5.5 4.5 10 0 4-1.5 7.5-4 10s-6 3.5-10 3.5H16V10z M24.5 27h8c2 0 3.5-.7 4.5-2s1.5-2.8 1.5-4.5c0-1.8-.5-3.2-1.5-4.3s-2.5-1.7-4.5-1.7h-8V27z M24.5 46h9.5c2.2 0 4-.8 5.2-2.2s1.8-3.2 1.8-5.3c0-2.2-.6-4-1.8-5.3S36.2 31 34 31h-9.5V46z" fill="white"/>
  <!-- Green accent bar -->
  <polygon points="22,14 40,14 44,21 26,21" fill="#1B8C3D" transform="rotate(-8 33 17.5)"/>
</svg>
